<svg width="612" height="61" viewBox="0 0 612 61" fill="none" xmlns="http://www.w3.org/2000/svg"><svg><path d="M25.591 19.594a14.931 14.931 0 0 0-10.6-4.41C6.698 15.185 0 21.902 0 30.195s6.698 15.01 14.99 15.01c6.999 0 12.834-4.785 14.503-11.258h-3.902a11.238 11.238 0 0 1-10.6 7.505c-6.21 0-11.257-5.047-11.257-11.257S8.78 18.937 14.99 18.937c3.114 0 5.89 1.295 7.917 3.34l-6.041 6.04H30V15.186l-4.409 4.409Z" fill="url(#a)"/></svg><svg><path d="M200 .194a30 30 0 1 1-30 30 30.056 30.056 0 0 1 30-30Zm-9.634 31.702 11.539 10.384c.427.385.981.6 1.557.606a2.281 2.281 0 0 0 1.701-.75 2.308 2.308 0 0 0-.145-3.262l-9.633-8.68 9.633-8.683a2.304 2.304 0 0 0 .088-3.206 2.31 2.31 0 0 0-3.201-.197l-11.539 10.384a2.308 2.308 0 0 0 0 3.404Z" fill="url(#b)"/></svg><path d="M281.259 39.078c-1.466-.006-2.728-.367-3.785-1.083-1.051-.716-1.86-1.753-2.429-3.11-.562-1.359-.84-2.992-.835-4.901 0-1.904.281-3.526.844-4.867.568-1.34 1.378-2.36 2.429-3.06 1.057-.704 2.315-1.056 3.776-1.056 1.46 0 2.715.352 3.767 1.057 1.056.704 1.869 1.727 2.437 3.068.568 1.335.85 2.954.844 4.858 0 1.915-.284 3.55-.852 4.909-.563 1.358-1.37 2.395-2.421 3.11-1.051.717-2.31 1.075-3.775 1.075Zm0-3.06c1 0 1.798-.503 2.394-1.509.597-1.005.892-2.514.887-4.525 0-1.324-.137-2.426-.409-3.307-.267-.88-.648-1.543-1.142-1.986a2.492 2.492 0 0 0-1.73-.665c-.995 0-1.79.498-2.387 1.492-.596.994-.898 2.483-.903 4.466 0 1.34.133 2.46.4 3.358.273.892.657 1.562 1.151 2.011a2.521 2.521 0 0 0 1.739.665Zm17.273-14.779v17.455h-3.69V24.742h-.103l-3.997 2.506v-3.273l4.321-2.736h3.469Zm11.785-.818-5.625 20.898h-3.128l5.625-20.898h3.128Zm9.309.819v17.454h-3.691V24.742h-.102l-3.997 2.506v-3.273l4.321-2.736h3.469Zm10.992 17.838c-1.466-.006-2.727-.367-3.784-1.083-1.051-.716-1.861-1.753-2.429-3.11-.563-1.359-.841-2.992-.835-4.901 0-1.904.281-3.526.843-4.867.569-1.34 1.378-2.36 2.429-3.06 1.057-.704 2.316-1.056 3.776-1.056s2.716.352 3.767 1.057c1.057.704 1.869 1.727 2.437 3.068.569 1.335.85 2.954.844 4.858 0 1.915-.284 3.55-.852 4.909-.563 1.358-1.369 2.395-2.421 3.11-1.051.717-2.309 1.075-3.775 1.075Zm0-3.06c1 0 1.798-.503 2.395-1.509.596-1.005.892-2.514.886-4.525 0-1.324-.136-2.426-.409-3.307-.267-.88-.648-1.543-1.142-1.986a2.49 2.49 0 0 0-1.73-.665c-.994 0-1.79.498-2.386 1.492-.597.994-.898 2.483-.904 4.466 0 1.34.134 2.46.401 3.358.272.892.656 1.562 1.15 2.011a2.523 2.523 0 0 0 1.739.665Z" fill="#202B37"/><svg><path d="M412 .194a30 30 0 1 0 30 30 30.056 30.056 0 0 0-30-30Zm9.634 31.702L410.095 42.28a2.36 2.36 0 0 1-1.557.606 2.281 2.281 0 0 1-1.701-.75 2.308 2.308 0 0 1 .145-3.262l9.633-8.68-9.633-8.683a2.304 2.304 0 0 1-.088-3.206 2.31 2.31 0 0 1 3.201-.197l11.539 10.384a2.308 2.308 0 0 1 0 3.404Z" fill="url(#c)"/></svg><svg><path fill-rule="evenodd" clip-rule="evenodd" d="M586.286 25.908H582V15.194h10.714v4.286h-6.428v6.428ZM582 34.48h4.286v6.428h6.428v4.286H582V34.48Zm25.714 6.428h-6.428v4.286H612V34.48h-4.286v6.428Zm-6.428-21.428v-4.286H612v10.714h-4.286V19.48h-6.428Z" fill="url(#d)"/></svg><defs><linearGradient id="a" x1="15" y1="15.185" x2="15" y2="45.203" gradientUnits="userSpaceOnUse"><stop stop-color="#06286E"/><stop offset="1" stop-color="#164EC0"/></linearGradient><linearGradient id="b" x1="200" y1=".194" x2="200" y2="60.194" gradientUnits="userSpaceOnUse"><stop stop-color="#06286E"/><stop offset="1" stop-color="#164EC0"/></linearGradient><linearGradient id="c" x1="412" y1=".194" x2="412" y2="60.194" gradientUnits="userSpaceOnUse"><stop stop-color="#06286E"/><stop offset="1" stop-color="#164EC0"/></linearGradient><linearGradient id="d" x1="597" y1="15.194" x2="597" y2="45.194" gradientUnits="userSpaceOnUse"><stop stop-color="#06286E"/><stop offset="1" stop-color="#164EC0"/></linearGradient></defs></svg>