<svg width="712" height="394" viewBox="0 0 712 394" fill="none" xmlns="http://www.w3.org/2000/svg">
<mask id="mask0_1_167" style="mask-type:alpha" maskUnits="userSpaceOnUse" x="0" y="0" width="712" height="394">
<rect width="712" height="393.194" rx="42.5075" fill="black"/>
</mask>
<g mask="url(#mask0_1_167)">
<rect width="712" height="393.194" rx="42.5075" fill="#C4C4C4"/>
<rect width="712" height="393.194" rx="42.5075" fill="url(#paint0_linear_1_167)"/>
  
<!-- sound icon -->
<svg>
<path d="M663.825 41.5014V38.5826C669.507 39.872 673.743 44.9445 673.743 51.0089C673.743 57.0733 669.507 62.1459 663.825 63.4353V60.5164C667.92 59.2979 670.909 55.5005 670.909 51.0089C670.909 46.5173 667.92 42.72 663.825 41.5014ZM648.239 46.7582V55.2597H653.906L660.991 62.3443V39.6736L653.906 46.7582H648.239ZM667.367 51.0089C667.367 49.8217 667.035 48.6582 666.409 47.6493C665.783 46.6405 664.888 45.8264 663.825 45.2988V56.7049C665.922 55.6706 667.367 53.5169 667.367 51.0089Z" fill="#F5F5F5"/>
</svg>

  <!-- bulb icon -->
<svg>
<path d="M46.7582 63.7612C46.7582 64.5405 47.3958 65.1781 48.1752 65.1781H53.8428C54.6221 65.1781 55.2597 64.5405 55.2597 63.7612V62.3443H46.7582V63.7612ZM51.009 36.8398C45.5397 36.8398 41.0906 41.2889 41.0906 46.7582C41.0906 50.1305 42.7767 53.0918 45.3413 54.8913V58.0935C45.3413 58.8728 45.9789 59.5105 46.7582 59.5105H55.2597C56.039 59.5105 56.6766 58.8728 56.6766 58.0935V54.8913C59.2413 53.0918 60.9274 50.1305 60.9274 46.7582C60.9274 41.2889 56.4783 36.8398 51.009 36.8398ZM55.0472 52.5676L53.8428 53.4177V56.6766H48.1752V53.4177L46.9708 52.5676C46.0321 51.9168 45.2647 51.0486 44.7342 50.037C44.2038 49.0254 43.9259 47.9005 43.9244 46.7582C43.9244 42.8475 47.0983 39.6736 51.009 39.6736C54.9197 39.6736 58.0936 42.8475 58.0936 46.7582C58.0936 49.0678 56.96 51.2357 55.0472 52.5676Z" fill="#F5F5F5"/>
  </svg>
</g>
<defs>
<linearGradient id="paint0_linear_1_167" x1="734.821" y1="-20.9539" x2="401.201" y2="628.303" gradientUnits="userSpaceOnUse">
<stop stop-color="#051A91"/>
<stop offset="0.173055" stop-color="#061C93"/>
<stop offset="0.797115" stop-color="#2284F1"/>
<stop offset="1" stop-color="#1F80EB"/>
</linearGradient>
</defs>
<!--svg text  -->
<text x="28%" y="54%" font-size="40" style="font-family:system-ui" font-weight="bold" fill="#fff">9 + 6 + 7x - 2x - 3</text>
</svg>
                                                                                                                                                          